<?xml version="1.0" encoding="utf-8"?>
<!-- Generator: Adobe Illustrator 25.2.1, SVG Export Plug-In . SVG Version: 6.00 Build 0)  -->
<svg version="1.1" id="Layer_1" xmlns="http://www.w3.org/2000/svg" xmlns:xlink="http://www.w3.org/1999/xlink" x="0px" y="0px"
	 viewBox="0 0 1920 1080" style="enable-background:new 0 0 1920 1080;" xml:space="preserve">
<style type="text/css">
	.st0{fill:#58595B;}
	.st1{fill:#FFFFFF;}
</style>
<g>
	<g>
		<path class="st0" d="M1057.1,559.6l6.3-17.2h-4.9l-2,6.6l-1.8-6.6h-5.1l4.8,12.3l-1.7,4.8h4.4V559.6z M1041.9,551.1
			c0-0.7,0.6-1,1.3-1c0.8,0,1.4,0.4,1.4,1c0,0.7-0.7,1-1.4,1C1042.6,552,1041.9,551.8,1041.9,551.1 M1037.2,551.2
			c0,2.9,2.2,4.3,4.5,4.3c1.2,0,2.3-0.3,3-1l0.3,0.7h4.2v-7.6c0-3-1.2-5.5-5.8-5.5c-1.9,0-4.1,0.7-5.4,1.6l1.8,3.1
			c1-0.5,2.1-0.7,3.1-0.7c1.2,0,1.7,0.5,1.7,1v0.4c-0.5-0.3-1.4-0.5-2.3-0.5C1039.2,547,1037.2,548.7,1037.2,551.2 M1027.2,555.2
			h5.5l4.4-17h-5.2l-2.3,11.3l-2.7-11.3h-4.3l-2.7,11.3l-2.3-11.3h-5.2l4.4,17h5.5l2.4-9.8L1027.2,555.2z M999.1,547.2
			c0-0.5,0.5-1.4,1.6-1.4c1,0,1.5,0.8,1.6,1.4H999.1z M994.2,548.6c0,3.7,2.6,6.9,7,6.9c3.5,0,5.3-2.2,5.6-2.8l-3.2-2.2
			c-0.2,0.4-1.1,1.1-2.3,1.1s-2-0.6-2.2-1.6h8c0-0.2,0-0.6,0-0.9c0-4.5-2.2-7.1-6.5-7.1C996.7,542.1,994.2,545,994.2,548.6
			 M988.3,542.1c-1.5,0-2.5,0.8-3,1.4v-5.8h-4.7v17.6h4.7v-7.6c0-0.7,0.5-1.4,1.4-1.4c0.8,0,1.4,0.5,1.4,1.4v7.6h4.7V547
			C992.7,544,991.5,542.1,988.3,542.1 M970.7,555.2h4.8v-12.8h3.5v-4.2h-11.8v4.2h3.5V555.2z M956.7,542.1c-1.6,0-2.7,0.9-3.2,1.5
			v-1.2h-4.6v12.8h4.7v-7.6c0-0.7,0.4-1.4,1.4-1.4c0.8,0,1.4,0.5,1.4,1.4v7.6h4.7V547C961,544,959.7,542.1,956.7,542.1 M941.5,555.2
			h4.8v-17h-4.8V555.2z M927.8,542.4h-1.3v3.7h1.2v4.3c0,3.5,1.8,5.1,5.2,5.1c1.2,0,1.7-0.1,1.7-0.1v-4c0,0-0.3,0-0.5,0
			c-0.7,0-1.7-0.1-1.7-1v-4.2h2.1v-3.7h-2.1v-2.7h-4.6L927.8,542.4L927.8,542.4z M917.7,547.2c0-0.5,0.5-1.4,1.6-1.4
			c1,0,1.5,0.8,1.6,1.4H917.7z M912.8,548.6c0,3.7,2.6,6.9,7,6.9c3.5,0,5.3-2.2,5.6-2.8l-3.2-2.2c-0.2,0.4-1.1,1.1-2.3,1.1
			s-2-0.6-2.2-1.6h8c0-0.2,0-0.6,0-0.9c0-4.5-2.2-7.1-6.5-7.1C915.3,542.1,912.8,545,912.8,548.6 M903.3,555.5
			c4.2,0,6.3-1.4,8.1-2.6v-7.5h-7.2v4h2.7v0.9c-0.4,0.3-1.4,0.8-3.3,0.8c-2.7,0-4.5-1.9-4.5-4.4s1.7-4.4,4.3-4.4
			c2.1,0,3.2,1,3.8,1.8l3.1-3.1c-0.9-1.1-3.2-3.1-7.1-3.1c-5.5,0-9.1,3.9-9.1,8.8C894.2,551.6,897.8,555.5,903.3,555.5"/>
	</g>
	<g>
		<path class="st1" d="M1008.7,531.4c0-0.5,0.5-1.4,1.6-1.4c1,0,1.5,0.8,1.6,1.4H1008.7z M1003.8,532.9c0,3.7,2.6,6.9,7,6.9
			c3.5,0,5.3-2.2,5.6-2.8l-3.2-2.2c-0.2,0.4-1.1,1.1-2.3,1.1s-2-0.6-2.2-1.6h8c0-0.2,0-0.6,0-0.9c0-4.5-2.2-7.1-6.5-7.1
			C1006.3,526.3,1003.8,529.2,1003.8,532.9 M998,526.3c-1.6,0-2.7,0.9-3.2,1.5v-1.2h-4.6v12.8h4.7v-7.6c0-0.7,0.4-1.4,1.4-1.4
			c0.8,0,1.4,0.5,1.4,1.4v7.6h4.7v-8.3C1002.3,528.2,1001,526.3,998,526.3 M988.6,527.3c-0.8-0.6-2.2-1-3.7-1
			c-4.1,0-7.1,2.8-7.1,6.8c0,3.9,2.9,6.7,7.1,6.7c1.4,0,2.8-0.3,3.8-1l-1.2-3.8c-0.6,0.4-1.5,0.7-2.1,0.7c-1.6,0-2.8-1-2.8-2.6
			c0-1.4,0.9-2.6,2.6-2.6c0.7,0,1.5,0.2,2.3,0.8L988.6,527.3z M970.2,532.3h-2.8l1.4-4.9L970.2,532.3z M971.3,536.2l1,3.3h4.9
			l-5.9-17h-5.1l-5.9,17h4.9l1-3.3H971.3z M947.9,526.6h-1.3v3.7h1.2v4.3c0,3.5,1.8,5.1,5.2,5.1c1.2,0,1.7-0.1,1.7-0.1v-4
			c0,0-0.3,0-0.5,0c-0.7,0-1.7-0.1-1.7-1v-4.2h2.1v-3.7h-2.1V524h-4.6L947.9,526.6L947.9,526.6z M937.8,531.4c0-0.5,0.5-1.4,1.6-1.4
			c1,0,1.5,0.8,1.6,1.4H937.8z M932.9,532.9c0,3.7,2.6,6.9,7,6.9c3.5,0,5.3-2.2,5.6-2.8l-3.2-2.2c-0.2,0.4-1.1,1.1-2.3,1.1
			s-2-0.6-2.2-1.6h8c0-0.2,0-0.6,0-0.9c0-4.5-2.2-7.1-6.5-7.1C935.4,526.3,932.9,529.2,932.9,532.9 M922.4,539.5h9.7v-4.2h-4.9
			v-12.8h-4.8V539.5z M908.6,526.6h-1.3v3.7h1.2v4.3c0,3.5,1.8,5.1,5.2,5.1c1.2,0,1.7-0.1,1.7-0.1v-4c0,0-0.3,0-0.5,0
			c-0.7,0-1.7-0.1-1.7-1v-4.2h2.1v-3.7h-2.1V524h-4.6L908.6,526.6L908.6,526.6z M900.9,524c0,1.1,0.7,2.3,2.1,2.6
			c-0.2,0.7-1.1,1.7-1.9,2.2l1.8,2c2.1-1.4,3.5-3.9,3.5-6.6c0-1.9-1.3-2.9-2.8-2.9S900.9,522.5,900.9,524 M895.9,526.3
			c-1.6,0-2.7,0.9-3.2,1.5v-1.2h-4.6v12.8h4.7v-7.6c0-0.7,0.4-1.4,1.4-1.4c0.8,0,1.4,0.5,1.4,1.4v7.6h4.7v-8.3
			C900.3,528.2,899,526.3,895.9,526.3 M877,533c0-1.6,1-2.7,2.4-2.7s2.4,1.1,2.4,2.7c0,1.6-1,2.7-2.4,2.7S877,534.7,877,533
			 M886.6,533c0-3.9-3.1-6.7-7.1-6.7c-4.1,0-7.1,2.8-7.1,6.7s3.1,6.7,7.1,6.7C883.5,539.8,886.6,536.9,886.6,533 M861.5,535.4v-8.8
			h0.6c2.5,0,4.2,1.4,4.2,4.4c0,2.9-1.7,4.4-4.2,4.4L861.5,535.4L861.5,535.4z M856.7,539.5h5.5c5.5,0,9.1-3.3,9.1-8.5
			c0-5.3-3.6-8.5-9.1-8.5h-5.5V539.5z"/>
	</g>
</g>
</svg>
