<?xml version="1.0" encoding="utf-8"?>
<!-- Generator: Adobe Illustrator 25.2.1, SVG Export Plug-In . SVG Version: 6.00 Build 0)  -->
<svg version="1.1" id="Layer_1" xmlns="http://www.w3.org/2000/svg" xmlns:xlink="http://www.w3.org/1999/xlink" x="0px" y="0px"
	 viewBox="0 0 600 600" style="enable-background:new 0 0 600 600;" xml:space="preserve">
<style type="text/css">
	.st0{fill:#FFFFFF;}
	.st1{fill:#58595B;}
</style>
<g>
	<path class="st0" d="M334.4,297.1c0.8,1,2.9,2,5.3,2c3.1,0,5.3-1.5,5.3-4.3c0-4.3-5.9-3.7-5.9-5c0-0.2,0.2-0.4,0.7-0.4
		c0.8,0,1.4,0.4,1.9,0.8l3-2.4c-0.9-1-2.5-2.1-4.8-2.1c-3,0-5.2,1.6-5.2,4.2c0,4.5,5.8,4.1,5.8,5.1c0,0.2-0.2,0.5-0.9,0.5
		c-1,0-2-0.4-2.7-0.9L334.4,297.1z M325.9,294.7c0-0.7,0.6-1,1.3-1c0.8,0,1.4,0.4,1.4,1c0,0.7-0.7,1-1.4,1
		C326.6,295.6,325.9,295.4,325.9,294.7 M321.2,294.8c0,2.9,2.2,4.3,4.5,4.3c1.2,0,2.3-0.3,3-1l0.3,0.7h4.2v-7.6c0-3-1.2-5.5-5.8-5.5
		c-1.9,0-4.1,0.7-5.4,1.6l1.8,3.1c1-0.5,2.1-0.7,3.1-0.7c1.2,0,1.7,0.5,1.7,1v0.4c-0.5-0.3-1.4-0.5-2.3-0.5
		C323.2,290.6,321.2,292.3,321.2,294.8 M310.9,292.4c0-1.5,0.8-2.7,2.4-2.7c1.5,0,2.4,1,2.4,2.7c0,1.6-0.9,2.7-2.4,2.7
		C311.8,295.1,310.9,294.1,310.9,292.4 M306.3,303.4h4.7V298c0.5,0.4,1.6,1.1,3.3,1.1c3.7,0,6.1-2.8,6.1-6.7c0-3.9-2.6-6.7-6.4-6.7
		c-1.7,0-2.8,0.7-3.3,1.1V286h-4.4V303.4z M289.1,298.8h10.4V295H295l4.5-6.2V286h-10.3v3.8h4.4l-4.4,6.3V298.8z M280.1,290.8
		c0-0.5,0.5-1.4,1.6-1.4c1,0,1.5,0.8,1.6,1.4H280.1z M275.1,292.2c0,3.7,2.6,6.9,7,6.9c3.5,0,5.3-2.2,5.6-2.8l-3.2-2.2
		c-0.2,0.4-1.1,1.1-2.3,1.1c-1.2,0-2-0.6-2.2-1.6h8c0-0.2,0-0.6,0-0.9c0-4.5-2.2-7.1-6.5-7.1C277.6,285.7,275.1,288.6,275.1,292.2
		 M263.7,297.1c0.8,1,2.9,2,5.3,2c3.1,0,5.3-1.5,5.3-4.3c0-4.3-5.9-3.7-5.9-5c0-0.2,0.2-0.4,0.7-0.4c0.8,0,1.4,0.4,1.9,0.8l3-2.4
		c-0.9-1-2.5-2.1-4.8-2.1c-3,0-5.2,1.6-5.2,4.2c0,4.5,5.8,4.1,5.8,5.1c0,0.2-0.2,0.5-0.9,0.5c-1,0-2-0.4-2.7-0.9L263.7,297.1z
		 M252.6,297.1c0.8,1,2.9,2,5.3,2c3.1,0,5.3-1.5,5.3-4.3c0-4.3-5.9-3.7-5.9-5c0-0.2,0.2-0.4,0.7-0.4c0.8,0,1.4,0.4,1.9,0.8l3-2.4
		c-0.9-1-2.5-2.1-4.8-2.1c-3,0-5.2,1.6-5.2,4.2c0,4.5,5.8,4.1,5.8,5.1c0,0.2-0.2,0.5-0.9,0.5c-1,0-2-0.4-2.7-0.9L252.6,297.1z
		 M246.4,282.9c0,1.3,1.1,2.3,2.5,2.3c1.4,0,2.5-1,2.5-2.3c0-1.4-1.1-2.4-2.5-2.4C247.5,280.6,246.4,281.5,246.4,282.9 M246.5,298.8
		h4.7V286h-4.7V298.8z M237.2,294.7c0-0.7,0.6-1,1.3-1c0.8,0,1.4,0.4,1.4,1c0,0.7-0.7,1-1.4,1C237.9,295.6,237.2,295.4,237.2,294.7
		 M232.5,294.8c0,2.9,2.2,4.3,4.5,4.3c1.2,0,2.3-0.3,3-1l0.3,0.7h4.2v-7.6c0-3-1.2-5.5-5.8-5.5c-1.9,0-4.1,0.7-5.4,1.6l1.8,3.1
		c1-0.5,2.1-0.7,3.1-0.7c1.2,0,1.7,0.5,1.7,1v0.4c-0.5-0.3-1.4-0.5-2.3-0.5C234.4,290.6,232.5,292.3,232.5,294.8 M226.3,298.8h4.7
		v-17.6h-4.7V298.8z M212,290.8c0-0.5,0.5-1.4,1.6-1.4c1,0,1.5,0.8,1.6,1.4H212z M207.1,292.2c0,3.7,2.6,6.9,7,6.9
		c3.5,0,5.3-2.2,5.6-2.8l-3.2-2.2c-0.2,0.4-1.1,1.1-2.3,1.1c-1.2,0-2-0.6-2.2-1.6h8c0-0.2,0-0.6,0-0.9c0-4.5-2.2-7.1-6.5-7.1
		C209.6,285.7,207.1,288.6,207.1,292.2 M190,298.8h4.7v-9.5l5.6,9.5h4.8v-17h-4.8v9.6l-5.5-9.6H190V298.8z"/>
	<path class="st1" d="M410.8,301.5c-1.4,0-2.7,0.7-3.3,1.9v-1.6h-4.6v12.8h4.7v-6c0-1.7,0.9-2.7,2.5-2.7c0.3,0,0.6,0,0.8,0.1V301.5z
		 M393.4,306.6c0-0.5,0.5-1.4,1.6-1.4c1,0,1.5,0.8,1.6,1.4H393.4z M388.5,308c0,3.7,2.6,6.9,7,6.9c3.5,0,5.3-2.2,5.6-2.8l-3.2-2.2
		c-0.2,0.4-1.1,1.1-2.3,1.1c-1.2,0-2-0.6-2.2-1.6h8c0-0.2,0-0.6,0-0.9c0-4.5-2.2-7.1-6.5-7.1C391,301.5,388.5,304.4,388.5,308
		 M382.7,301.5c-1.6,0-2.7,0.9-3.2,1.5v-1.2h-4.6v12.8h4.7V307c0-0.7,0.4-1.4,1.4-1.4c0.8,0,1.4,0.5,1.4,1.4v7.6h4.7v-8.3
		C387.1,303.4,385.8,301.5,382.7,301.5 M368.1,300.6h3.9l-2.4-3.7h-4.8l-2.4,3.7h3.9l0.9-1.5L368.1,300.6z M365.5,306.6
		c0-0.5,0.5-1.4,1.6-1.4c1,0,1.5,0.8,1.6,1.4H365.5z M360.6,308c0,3.7,2.6,6.9,7,6.9c3.5,0,5.3-2.2,5.6-2.8l-3.2-2.2
		c-0.2,0.4-1.1,1.1-2.3,1.1c-1.2,0-2-0.6-2.2-1.6h8c0-0.2,0-0.6,0-0.9c0-4.5-2.2-7.1-6.5-7.1C363.1,301.5,360.6,304.4,360.6,308
		 M354.6,308.1c0,1.4-0.8,2.6-2.4,2.6c-1.5,0-2.4-1-2.4-2.6c0-1.5,0.9-2.6,2.4-2.6C353.7,305.5,354.6,306.5,354.6,308.1
		 M346.9,318.2c1.2,0.6,3.1,1,5,1c3.7,0,7.3-1.5,7.3-6.3v-11.2h-4.7v0.8c-0.5-0.4-1.6-1.1-3.3-1.1c-3.7,0-6.1,2.7-6.1,6.7
		c0,3.9,2.6,6.7,6.4,6.7c1.4,0,2.3-0.4,3-1v0.3c0,1-1.3,1.4-2.7,1.4c-1.6,0-3.2-0.7-3.5-0.8L346.9,318.2z M328.9,312.9
		c0.8,1,2.9,2,5.3,2c3.1,0,5.3-1.5,5.3-4.3c0-4.3-5.9-3.7-5.9-5c0-0.2,0.2-0.4,0.7-0.4c0.8,0,1.4,0.4,1.9,0.8l3-2.4
		c-0.9-1-2.5-2.1-4.8-2.1c-3,0-5.2,1.6-5.2,4.2c0,4.5,5.8,4.1,5.8,5.1c0,0.2-0.2,0.5-0.9,0.5c-1,0-2-0.4-2.7-0.9L328.9,312.9z
		 M319.9,314.9c1.6,0,2.7-0.9,3.2-1.5v1.2h4.6v-12.8H323v7.6c0,0.7-0.4,1.4-1.4,1.4c-0.8,0-1.4-0.5-1.4-1.4v-7.6h-4.7v8.3
		C315.6,313,316.9,314.9,319.9,314.9 M304.6,308.2c0-1.6,1-2.7,2.4-2.7c1.4,0,2.4,1.1,2.4,2.7c0,1.6-1,2.7-2.4,2.7
		C305.6,310.9,304.6,309.8,304.6,308.2 M314.2,308.2c0-3.9-3.1-6.7-7.1-6.7c-4.1,0-7.1,2.8-7.1,6.7c0,3.9,3.1,6.7,7.1,6.7
		C311.1,314.9,314.2,312.1,314.2,308.2 M295.7,314.6l4.2-12.8H295l-2,8l-2.1-8h-5.1l4.4,12.8H295.7z M271.9,300.6h3.8l2.7-3.7h-4.9
		L271.9,300.6z M272.6,306.6c0-0.5,0.5-1.4,1.6-1.4c1,0,1.5,0.8,1.6,1.4H272.6z M267.7,308c0,3.7,2.6,6.9,7,6.9
		c3.5,0,5.3-2.2,5.6-2.8l-3.2-2.2c-0.2,0.4-1.1,1.1-2.3,1.1c-1.2,0-2-0.6-2.2-1.6h8c0-0.2,0-0.6,0-0.9c0-4.5-2.2-7.1-6.5-7.1
		C270.2,301.5,267.7,304.4,267.7,308 M261.9,301.5c-1.6,0-2.7,0.9-3.2,1.5v-1.2h-4.6v12.8h4.7V307c0-0.7,0.4-1.4,1.4-1.4
		c0.8,0,1.4,0.5,1.4,1.4v7.6h4.7v-8.3C266.3,303.4,264.9,301.5,261.9,301.5 M252.5,302.5c-0.8-0.6-2.2-1-3.7-1
		c-4.1,0-7.1,2.8-7.1,6.8c0,3.9,2.9,6.7,7.1,6.7c1.4,0,2.8-0.3,3.8-1l-1.2-3.8c-0.6,0.4-1.5,0.7-2.1,0.7c-1.6,0-2.8-1-2.8-2.6
		c0-1.4,0.9-2.6,2.6-2.6c0.7,0,1.5,0.2,2.3,0.8L252.5,302.5z M232.9,310.4c0-0.7,0.6-1,1.3-1c0.8,0,1.4,0.4,1.4,1c0,0.7-0.7,1-1.4,1
		C233.6,311.4,232.9,311.1,232.9,310.4 M228.2,310.6c0,2.9,2.2,4.3,4.5,4.3c1.2,0,2.3-0.3,3-1l0.3,0.7h4.2V307c0-3-1.2-5.5-5.8-5.5
		c-1.9,0-4.1,0.7-5.4,1.6l1.8,3.1c1-0.5,2.1-0.7,3.1-0.7c1.2,0,1.7,0.5,1.7,1v0.4c-0.5-0.3-1.4-0.5-2.3-0.5
		C230.2,306.3,228.2,308,228.2,310.6 M221.8,299.2c0,1.1,0.7,2.3,2.1,2.6c-0.2,0.7-1.1,1.7-1.9,2.2l1.8,2c2.1-1.4,3.5-3.9,3.5-6.6
		c0-1.9-1.3-2.9-2.8-2.9C223,296.5,221.8,297.7,221.8,299.2 M215.6,314.6h4.7V297h-4.7V314.6z"/>
</g>
</svg>
