<svg xmlns="http://www.w3.org/2000/svg" data-name="Camada 1" viewBox="0 0 100 125" x="0px" y="0px"><title>Happy</title><path style="fill:#1ECBE1;" d="M50.00024,100.00024a50.00024,50.00024,0,1,1,50-50A50.05738,50.05738,0,0,1,50.00024,100.00024Zm0-96.00048a46.00024,46.00024,0,1,0,46,46.00048A46.05259,46.05259,0,0,0,50.00024,3.99976Z"/><path style="fill:#1ECBE1;" d="M71.78111,57.18558a2.00117,2.00117,0,0,0-2.65921-.3173,34.19855,34.19855,0,0,1-19.1218,6.22238,34.19866,34.19866,0,0,1-19.12191-6.22245,2.00122,2.00122,0,0,0-2.65916.31718h0a2.00017,2.00017,0,0,0,.33629,2.95216A37.84792,37.84792,0,0,0,50.0001,67.09066a37.84643,37.84643,0,0,0,21.44466-6.95318,2.0001,2.0001,0,0,0,.33635-2.95189Z"/><path style="fill:#1ECBE1;" d="M41.6621,40.24121h0A2.00909,2.00909,0,0,1,39.731,38.73728a5.74086,5.74086,0,0,0-11.081.00018A2.00908,2.00908,0,0,1,26.719,40.24121h-.00008a2.01348,2.01348,0,0,1-1.92737-2.56,9.74146,9.74146,0,0,1,18.798,0A2.01348,2.01348,0,0,1,41.6621,40.24121Z"/><path style="fill:#1ECBE1;" d="M73.28345,40.24121h0a2.00911,2.00911,0,0,1-1.93111-1.50393,5.74086,5.74086,0,0,0-11.081.00018,2.00907,2.00907,0,0,1-1.93106,1.50375h-.00007a2.01349,2.01349,0,0,1-1.92738-2.56,9.74147,9.74147,0,0,1,18.798,0A2.01349,2.01349,0,0,1,73.28345,40.24121Z"/></svg>
