<svg xmlns="http://www.w3.org/2000/svg" data-name="Camada 1" viewBox="0 0 100 125" x="0px" y="0px"><title>Sad_1</title><path style="fill:#1ECBE1;" d="M50.00024,100.00024a50.00024,50.00024,0,1,1,50-50A50.05738,50.05738,0,0,1,50.00024,100.00024Zm0-96.00048a46.00024,46.00024,0,1,0,46,46.00048A46.05259,46.05259,0,0,0,50.00024,3.99976Z"/><path style="fill:#1ECBE1;" d="M73.91238,47.78937A2.00889,2.00889,0,0,0,71.761,48.95673a5.74106,5.74106,0,0,1-10.93164-1.81488,2.00889,2.00889,0,0,0-1.6587-1.79969V45.3421a2.01376,2.01376,0,0,0-2.3208,2.20984,9.74163,9.74163,0,0,0,18.54444,3.07855A2.01363,2.01363,0,0,0,73.91238,47.78937Z"/><path style="fill:#1ECBE1;" d="M40.82938,45.3421v.00006a2.00941,2.00941,0,0,0-1.6587,1.79969,5.74073,5.74073,0,0,1-10.93115,1.81488,2.00041,2.00041,0,1,0-3.6333,1.67376,9.74133,9.74133,0,0,0,18.544-3.07855A2.01357,2.01357,0,0,0,40.82938,45.3421Z"/><path style="fill:#1ECBE1;" d="M64.91528,75.2114V75.211a2.01667,2.01667,0,0,0-1.26382-1.86978,35.721,35.721,0,0,0-27.30274,0,2.01667,2.01667,0,0,0-1.26351,1.86964h0a2.00909,2.00909,0,0,0,2.77712,1.85461,31.458,31.458,0,0,1,24.2764.0008A2.009,2.009,0,0,0,64.91528,75.2114Z"/></svg>
